<svg xmlns="http://www.w3.org/2000/svg" viewBox="0 0 600 300">
  <defs>
    <linearGradient id="bg" x1="0%" y1="0%" x2="100%" y2="100%">
      <stop offset="0%" stop-color="#0F172A"/>
      <stop offset="100%" stop-color="#1a0a3a"/>
    </linearGradient>
    <linearGradient id="pur" x1="0%" y1="0%" x2="100%" y2="0%">
      <stop offset="0%" stop-color="#8B5CF6"/>
      <stop offset="100%" stop-color="#6D28D9"/>
    </linearGradient>
  </defs>
  <rect width="600" height="300" fill="url(#bg)"/>
  <!-- Lab bench background -->
  <rect x="0" y="220" width="600" height="80" fill="#1E1035" opacity="0.5"/>
  <rect x="0" y="220" width="600" height="8" fill="#8B5CF6" opacity="0.15"/>
  <!-- DNA Helix (large, centered-left) -->
  <g transform="translate(165,148)" opacity="0.85">
    <path d="M -22 -100 Q 22 -78 -22 -56 Q 22 -34 -22 -12 Q 22 10 -22 32 Q 22 54 -22 76 Q 22 98 -22 120" fill="none" stroke="#8B5CF6" stroke-width="4" stroke-linecap="round"/>
    <path d="M 22 -100 Q -22 -78 22 -56 Q -22 -34 22 -12 Q -22 10 22 32 Q -22 54 22 76 Q -22 98 22 120" fill="none" stroke="#10B981" stroke-width="4" stroke-linecap="round"/>
    <!-- Rungs -->
    <line x1="-22" y1="-100" x2="22" y2="-100" stroke="#64748B" stroke-width="2.5"/>
    <line x1="-20" y1="-78" x2="20" y2="-78" stroke="#64748B" stroke-width="2.5"/>
    <line x1="-22" y1="-56" x2="22" y2="-56" stroke="#64748B" stroke-width="2.5"/>
    <line x1="-20" y1="-34" x2="20" y2="-34" stroke="#64748B" stroke-width="2.5"/>
    <line x1="-22" y1="-12" x2="22" y2="-12" stroke="#64748B" stroke-width="2.5"/>
    <line x1="-20" y1="10" x2="20" y2="10" stroke="#64748B" stroke-width="2.5"/>
    <line x1="-22" y1="32" x2="22" y2="32" stroke="#64748B" stroke-width="2.5"/>
    <line x1="-20" y1="54" x2="20" y2="54" stroke="#64748B" stroke-width="2.5"/>
    <line x1="-22" y1="76" x2="22" y2="76" stroke="#64748B" stroke-width="2.5"/>
    <line x1="-20" y1="98" x2="20" y2="98" stroke="#64748B" stroke-width="2.5"/>
    <line x1="-22" y1="120" x2="22" y2="120" stroke="#64748B" stroke-width="2.5"/>
    <!-- Glow dots at helix nodes -->
    <circle cx="-22" cy="-100" r="5" fill="#8B5CF6" opacity="0.8"/>
    <circle cx="22" cy="-78" r="5" fill="#10B981" opacity="0.8"/>
    <circle cx="-22" cy="-56" r="5" fill="#8B5CF6" opacity="0.8"/>
    <circle cx="22" cy="-34" r="5" fill="#10B981" opacity="0.8"/>
    <circle cx="-22" cy="-12" r="5" fill="#8B5CF6" opacity="0.8"/>
    <circle cx="22" cy="10" r="5" fill="#10B981" opacity="0.8"/>
    <circle cx="-22" cy="32" r="5" fill="#8B5CF6" opacity="0.8"/>
    <circle cx="22" cy="54" r="5" fill="#10B981" opacity="0.8"/>
    <circle cx="-22" cy="76" r="5" fill="#8B5CF6" opacity="0.8"/>
    <circle cx="22" cy="98" r="5" fill="#10B981" opacity="0.8"/>
  </g>
  <!-- Microscope (right) -->
  <g transform="translate(380,160)">
    <rect x="-50" y="62" width="100" height="16" rx="6" fill="#475569"/>
    <rect x="-38" y="50" width="76" height="16" rx="4" fill="#475569" opacity="0.9"/>
    <rect x="-10" y="-78" width="20" height="140" rx="5" fill="#64748B"/>
    <rect x="-7" y="-74" width="7" height="134" rx="3" fill="white" opacity="0.08"/>
    <path d="M 10 -55 Q 52 -55 52 -18 L 52 10 Q 52 28 32 28 L 10 28" fill="none" stroke="#64748B" stroke-width="16" stroke-linecap="round"/>
    <rect x="-14" y="-95" width="28" height="26" rx="5" fill="#94A3B8"/>
    <ellipse cx="0" cy="-95" rx="16" ry="7" fill="#B0BEC5"/>
    <rect x="-12" y="-28" width="24" height="48" rx="8" fill="#475569"/>
    <ellipse cx="0" cy="20" rx="13" ry="7" fill="#1E293B"/>
    <ellipse cx="0" cy="20" rx="8" ry="4" fill="#8B5CF6" opacity="0.7"/>
    <circle cx="0" cy="20" r="3" fill="#C4B5FD" opacity="0.5"/>
    <rect x="-38" y="26" width="76" height="12" rx="4" fill="#64748B"/>
    <circle cx="-20" cy="15" r="8" fill="#8B5CF6" opacity="0.7"/>
    <circle cx="-20" cy="32" r="6" fill="#7C3AED" opacity="0.7"/>
    <circle cx="0" cy="32" r="5" fill="#8B5CF6" opacity="0.25"/>
  </g>
  <!-- Test tubes on bench -->
  <g transform="translate(480,195)">
    <rect x="-8" y="-60" width="16" height="70" rx="8 8 0 0" fill="none" stroke="#8B5CF6" stroke-width="2" opacity="0.7"/>
    <path d="M -8 10 Q -8 24 0 24 Q 8 24 8 10 Z" fill="#8B5CF6" opacity="0.7"/>
    <rect x="-8" y="20" width="16" height="32" rx="0 0 8 8" fill="#8B5CF6" opacity="0.3"/>
    <rect x="-9" y="-65" width="18" height="12" rx="3" fill="#475569"/>
  </g>
  <g transform="translate(510,198)">
    <rect x="-8" y="-50" width="16" height="60" rx="8 8 0 0" fill="none" stroke="#10B981" stroke-width="2" opacity="0.7"/>
    <path d="M -8 10 Q -8 22 0 22 Q 8 22 8 10 Z" fill="#10B981" opacity="0.7"/>
    <rect x="-8" y="10" width="16" height="22" rx="0 0 8 8" fill="#10B981" opacity="0.3"/>
    <rect x="-9" y="-55" width="18" height="10" rx="3" fill="#475569"/>
  </g>
  <!-- Report/clipboard accent -->
  <g transform="translate(90,190)" opacity="0.3">
    <rect x="-22" y="-48" width="44" height="60" rx="4" fill="#8B5CF6"/>
    <rect x="-16" y="-35" width="30" height="3" rx="1" fill="white" opacity="0.5"/>
    <rect x="-16" y="-25" width="24" height="3" rx="1" fill="white" opacity="0.5"/>
    <rect x="-16" y="-15" width="28" height="3" rx="1" fill="white" opacity="0.5"/>
    <rect x="-16" y="-5" width="20" height="3" rx="1" fill="white" opacity="0.5"/>
    <rect x="-5" y="-54" width="10" height="10" rx="2" fill="#6D28D9"/>
  </g>
  <!-- Floating particles -->
  <circle cx="100" cy="100" r="3" fill="#8B5CF6" opacity="0.3"/>
  <circle cx="490" cy="85" r="3" fill="#10B981" opacity="0.3"/>
  <circle cx="250" cy="60" r="2" fill="#8B5CF6" opacity="0.25"/>
  <circle cx="320" cy="50" r="2.5" fill="#0EA5E9" opacity="0.25"/>
  <!-- Bottom bar -->
  <rect x="0" y="238" width="600" height="62" fill="rgba(0,0,0,0.45)"/>
  <line x1="50" y1="238" x2="550" y2="238" stroke="#8B5CF6" stroke-width="2" opacity="0.6"/>
  <text x="300" y="267" font-family="Arial,Helvetica,sans-serif" font-size="20" font-weight="bold" fill="white" text-anchor="middle">Veterinary Research</text>
  <text x="300" y="290" font-family="Arial,Helvetica,sans-serif" font-size="12" fill="#C4B5FD" text-anchor="middle" letter-spacing="0.8">Diagnostic Kits · Reagents · Research Institutes</text>
</svg>
