<svg xmlns="http://www.w3.org/2000/svg" viewBox="0 0 600 400">
  <defs>
    <linearGradient id="bg" x1="0%" y1="0%" x2="100%" y2="100%">
      <stop offset="0%" stop-color="#0F172A"/>
      <stop offset="100%" stop-color="#1c150a"/>
    </linearGradient>
  </defs>
  <rect width="600" height="400" fill="url(#bg)"/>
  <circle cx="550" cy="50" r="110" fill="#D97706" opacity="0.05"/>
  <!-- Warehouse building exterior -->
  <!-- Main warehouse body -->
  <rect x="40" y="170" width="520" height="190" fill="#1E293B" opacity="0.88"/>
  <!-- Roof pitched -->
  <polygon points="40,170 300,90 560,170" fill="#162032" opacity="0.9"/>
  <!-- Roof ridge highlight -->
  <line x1="40" y1="170" x2="300" y2="90" stroke="#334155" stroke-width="3"/>
  <line x1="300" y1="90" x2="560" y2="170" stroke="#334155" stroke-width="3"/>
  <!-- Ventilation ridge on roof -->
  <rect x="256" y="88" width="88" height="20" rx="4" fill="#0F172A"/>
  <!-- Large warehouse doors -->
  <rect x="160" y="260" width="130" height="100" rx="2" fill="#162032" opacity="0.95"/>
  <!-- Door panels (vertical lines) -->
  <line x1="185" y1="260" x2="185" y2="360" stroke="#334155" stroke-width="2"/>
  <line x1="210" y1="260" x2="210" y2="360" stroke="#334155" stroke-width="2"/>
  <line x1="235" y1="260" x2="235" y2="360" stroke="#334155" stroke-width="2"/>
  <line x1="260" y1="260" x2="260" y2="360" stroke="#334155" stroke-width="2"/>
  <rect x="160" y="280" width="130" height="3" fill="#334155" opacity="0.5"/>
  <rect x="160" y="300" width="130" height="3" fill="#334155" opacity="0.5"/>
  <!-- Door track rail -->
  <rect x="150" y="257" width="150" height="6" rx="2" fill="#475569"/>
  <!-- Second warehouse door -->
  <rect x="312" y="260" width="120" height="100" rx="2" fill="#162032" opacity="0.95"/>
  <line x1="334" y1="260" x2="334" y2="360" stroke="#334155" stroke-width="2"/>
  <line x1="356" y1="260" x2="356" y2="360" stroke="#334155" stroke-width="2"/>
  <line x1="378" y1="260" x2="378" y2="360" stroke="#334155" stroke-width="2"/>
  <line x1="400" y1="260" x2="400" y2="360" stroke="#334155" stroke-width="2"/>
  <rect x="312" y="280" width="120" height="3" fill="#334155" opacity="0.5"/>
  <rect x="312" y="300" width="120" height="3" fill="#334155" opacity="0.5"/>
  <rect x="302" y="257" width="140" height="6" rx="2" fill="#475569"/>
  <!-- High windows strip -->
  <rect x="68" y="192" width="68" height="28" rx="3" fill="#F59E0B" opacity="0.35"/>
  <rect x="146" y="192" width="68" height="28" rx="3" fill="#F59E0B" opacity="0.30"/>
  <rect x="224" y="192" width="68" height="28" rx="3" fill="#F59E0B" opacity="0.38"/>
  <rect x="302" y="192" width="68" height="28" rx="3" fill="#F59E0B" opacity="0.25"/>
  <rect x="380" y="192" width="68" height="28" rx="3" fill="#F59E0B" opacity="0.30"/>
  <rect x="458" y="192" width="68" height="28" rx="3" fill="#F59E0B" opacity="0.35"/>
  <!-- Interior shelves (visible through open door - right) -->
  <clipPath id="shelfdoor">
    <rect x="312" y="260" width="120" height="100"/>
  </clipPath>
  <g clip-path="url(#shelfdoor)">
    <rect x="314" y="270" width="4" height="88" fill="#10B981" opacity="0.4"/>
    <rect x="330" y="270" width="4" height="88" fill="#10B981" opacity="0.4"/>
    <rect x="346" y="270" width="4" height="88" fill="#10B981" opacity="0.4"/>
    <rect x="362" y="270" width="4" height="88" fill="#10B981" opacity="0.4"/>
    <rect x="378" y="270" width="4" height="88" fill="#10B981" opacity="0.4"/>
    <rect x="394" y="270" width="4" height="88" fill="#10B981" opacity="0.4"/>
    <rect x="314" y="290" width="88" height="4" fill="#64748B" opacity="0.4"/>
    <rect x="314" y="312" width="88" height="4" fill="#64748B" opacity="0.4"/>
    <rect x="314" y="334" width="88" height="4" fill="#64748B" opacity="0.4"/>
    <!-- Boxes on shelves -->
    <rect x="317" y="293" width="10" height="18" rx="1" fill="#0EA5E9" opacity="0.7"/>
    <rect x="330" y="293" width="10" height="18" rx="1" fill="#10B981" opacity="0.7"/>
    <rect x="343" y="295" width="10" height="16" rx="1" fill="#0EA5E9" opacity="0.6"/>
    <rect x="317" y="315" width="10" height="18" rx="1" fill="#10B981" opacity="0.6"/>
    <rect x="330" y="315" width="10" height="18" rx="1" fill="#F59E0B" opacity="0.5"/>
  </g>
  <!-- Forklift silhouette -->
  <g transform="translate(480,310)" fill="#64748B" opacity="0.6">
    <rect x="-20" y="-35" width="40" height="55" rx="4"/>
    <rect x="-28" y="-45" width="12" height="12" rx="2"/>
    <line x1="20" y1="-35" x2="50" y2="-35" stroke="#64748B" stroke-width="5"/>
    <line x1="20" y1="-10" x2="50" y2="-10" stroke="#64748B" stroke-width="5"/>
    <line x1="50" y1="-55" x2="50" y2="-10" stroke="#64748B" stroke-width="4"/>
    <circle cx="-15" cy="22" r="10" fill="#475569"/>
    <circle cx="18" cy="22" r="10" fill="#475569"/>
    <circle cx="-15" cy="22" r="4" fill="#334155"/>
    <circle cx="18" cy="22" r="4" fill="#334155"/>
  </g>
  <!-- Boxes stacked outside -->
  <g transform="translate(90,310)" opacity="0.5">
    <rect x="0" y="0" width="35" height="30" rx="2" fill="#0EA5E9" opacity="0.6"/>
    <rect x="0" y="-32" width="35" height="30" rx="2" fill="#0EA5E9" opacity="0.5"/>
    <rect x="0" y="-64" width="35" height="30" rx="2" fill="#0EA5E9" opacity="0.4"/>
    <rect x="38" y="0" width="30" height="30" rx="2" fill="#10B981" opacity="0.55"/>
    <rect x="38" y="-32" width="30" height="30" rx="2" fill="#10B981" opacity="0.45"/>
  </g>
  <!-- Ground -->
  <rect x="0" y="360" width="600" height="40" fill="#1E293B" opacity="0.4"/>
  <!-- Bottom bar -->
  <rect x="0" y="322" width="600" height="78" fill="rgba(0,0,0,0.42)"/>
  <line x1="48" y1="322" x2="552" y2="322" stroke="#D97706" stroke-width="2" opacity="0.5"/>
  <text x="300" y="357" font-family="Arial,Helvetica,sans-serif" font-size="22" font-weight="bold" fill="white" text-anchor="middle">Storage Facility</text>
  <text x="300" y="382" font-family="Arial,Helvetica,sans-serif" font-size="12.5" fill="#FCD34D" text-anchor="middle" letter-spacing="1">Temperature-Controlled · High-Capacity · Secure</text>
</svg>
